<svg xmlns:xlink="http://www.w3.org/1999/xlink" viewBox="0 0 24 24" xmlns="http://www.w3.org/2000/svg" focusable="false" width="28"  height="28" ><defs><linearGradient id="dsId_apGQlObj4p0_linear_31292_287" x1="1.018" y1="11.69" x2="12.189" y2="17.067" gradientUnits="userSpaceOnUse"><stop stop-opacity=".8" stop-color="currentColor"></stop><stop offset="1" stop-opacity=".65" stop-color="currentColor"></stop></linearGradient><linearGradient id="dsId_apGQlObj4p1_linear_31292_287" x1="22.299" y1="2.5" x2="15.338" y2="18.464" gradientUnits="userSpaceOnUse"><stop stop-color="currentColor"></stop><stop offset="1" stop-opacity=".8" stop-color="currentColor"></stop></linearGradient><linearGradient id="dsId_apGQlObj4p0_linear_31292_287" x1="1.018" y1="11.69" x2="12.189" y2="17.067" gradientUnits="userSpaceOnUse"><stop stop-opacity=".8" stop-color="currentColor"></stop><stop offset="1" stop-opacity=".65" stop-color="currentColor"></stop></linearGradient><linearGradient id="dsId_apGQlObj4p1_linear_31292_287" x1="22.299" y1="2.5" x2="15.338" y2="18.464" gradientUnits="userSpaceOnUse"><stop stop-color="currentColor"></stop><stop offset="1" stop-opacity=".8" stop-color="currentColor"></stop></linearGradient></defs><path opacity=".85" d="M9.99 2.5.502 12.02 10 21.5A5.13 5.13 0 0 0 10 14.244l-2.227-2.223 2.215-2.228A5.178 5.178 0 0 0 9.99 2.5Z" fill="url(&quot;#dsId_apGQlObj4p0_linear_31292_287&quot;)"></path><path opacity=".85" d="m14.014 2.5 9.488 9.52-9.498 9.48a5.13 5.13 0 0 1 .001-7.256l2.226-2.223-2.214-2.228a5.178 5.178 0 0 1-.003-7.293Z" fill="url(&quot;#dsId_apGQlObj4p1_linear_31292_287&quot;)"></path></svg>