<svg xmlns:xlink="http://www.w3.org/1999/xlink" viewBox="0 0 24 24" xmlns="http://www.w3.org/2000/svg" focusable="false" width="24"  height="24" ><defs><linearGradient id="dsId_0Si1xawrUh0_linear_1134_1338" x1=".5" y1="17" x2="6" y2="22" gradientUnits="userSpaceOnUse"><stop stop-opacity=".5" stop-color="currentColor"></stop><stop offset="1" stop-opacity=".4" stop-color="currentColor"></stop></linearGradient><linearGradient id="dsId_0Si1xawrUh1_linear_1134_1338" x1="7.5" y1="13.667" x2="15.242" y2="17.89" gradientUnits="userSpaceOnUse"><stop stop-opacity=".7" stop-color="currentColor"></stop><stop offset="1" stop-opacity=".5" stop-color="currentColor"></stop></linearGradient><linearGradient id="dsId_0Si1xawrUh2_linear_1134_1338" x1="18" y1="1" x2="27.732" y2="15.441" gradientUnits="userSpaceOnUse"><stop stop-color="currentColor"></stop><stop offset=".571" stop-opacity=".9" stop-color="currentColor"></stop><stop offset="1" stop-opacity=".5" stop-color="currentColor"></stop></linearGradient><linearGradient id="dsId_0Si1xawrUh0_linear_1134_1338" x1=".5" y1="17" x2="6" y2="22" gradientUnits="userSpaceOnUse"><stop stop-opacity=".5" stop-color="currentColor"></stop><stop offset="1" stop-opacity=".4" stop-color="currentColor"></stop></linearGradient><linearGradient id="dsId_0Si1xawrUh1_linear_1134_1338" x1="7.5" y1="13.667" x2="15.242" y2="17.89" gradientUnits="userSpaceOnUse"><stop stop-opacity=".7" stop-color="currentColor"></stop><stop offset="1" stop-opacity=".5" stop-color="currentColor"></stop></linearGradient><linearGradient id="dsId_0Si1xawrUh2_linear_1134_1338" x1="18" y1="1" x2="27.732" y2="15.441" gradientUnits="userSpaceOnUse"><stop stop-color="currentColor"></stop><stop offset=".571" stop-opacity=".9" stop-color="currentColor"></stop><stop offset="1" stop-opacity=".5" stop-color="currentColor"></stop></linearGradient></defs><path d="M0 19a3 3 0 0 1 3-3h4v3a3 3 0 0 1-3 3H0v-3Z" fill="url(&quot;#dsId_0Si1xawrUh0_linear_1134_1338&quot;)"></path><path d="M7 15a3 3 0 0 1 3-3h4v7a3 3 0 0 1-3 3H7v-7Z" fill="url(&quot;#dsId_0Si1xawrUh1_linear_1134_1338&quot;)"></path><path d="m11 9 6.5-8L24 9h-3v10a3 3 0 0 1-3 3h-4V9h-3Z" fill="url(&quot;#dsId_0Si1xawrUh2_linear_1134_1338&quot;)"></path></svg>