<svg xmlns:xlink="http://www.w3.org/1999/xlink" viewBox="0 0 24 24" xmlns="http://www.w3.org/2000/svg" focusable="false" width="24"  height="24" ><defs><linearGradient id="dsId_JeipkkagDN0_linear_4454_1788" x1="22" y1="4" x2="3" y2="20" gradientUnits="userSpaceOnUse"><stop stop-opacity=".71" stop-color="currentColor"></stop><stop offset="1" stop-color="currentColor"></stop></linearGradient><linearGradient id="dsId_JeipkkagDN0_linear_4454_1788" x1="22" y1="4" x2="3" y2="20" gradientUnits="userSpaceOnUse"><stop stop-opacity=".71" stop-color="currentColor"></stop><stop offset="1" stop-color="currentColor"></stop></linearGradient></defs><path fill-rule="evenodd" clip-rule="evenodd" d="M5 4h17v13a3 3 0 0 1-3 3H2V7a3 3 0 0 1 3-3Zm4.5 7V7h3.82c.776 0 1.569.159 2.127.698.517.5 1.053 1.267 1.053 2.302 0 1.035-.536 1.803-1.053 2.302-.558.54-1.351.698-2.127.698H12v1h2.5a2 2 0 0 1-2 2H12a1.5 1.5 0 0 1-1.5 1.5h-1V16h-2v-.04a1.96 1.96 0 0 1 2-1.96v-1l-2-.041a1.96 1.96 0 0 1 2-1.96ZM13 9h-1v2h1s1 0 1-1-1-1-1-1Z" fill="url(&quot;#dsId_JeipkkagDN0_linear_4454_1788&quot;)"></path><path opacity=".7" d="M5 20h3a2 2 0 0 1-2 2H5v-2ZM16 20h3a2 2 0 0 1-2 2h-1v-2Z" fill="#FFFFFF"></path></svg>