<svg xmlns:xlink="http://www.w3.org/1999/xlink" viewBox="0 0 24 24" xmlns="http://www.w3.org/2000/svg" focusable="false" width="24"  height="24" ><defs><linearGradient id="dsId_ZmtW9DVJOG0_linear_1524_1583" x1="1" y1="2" x2="19.798" y2="23.766" gradientUnits="userSpaceOnUse"><stop stop-color="currentColor"></stop><stop offset="1" stop-opacity=".7" stop-color="currentColor"></stop></linearGradient><linearGradient id="dsId_ZmtW9DVJOG0_linear_1524_1583" x1="1" y1="2" x2="19.798" y2="23.766" gradientUnits="userSpaceOnUse"><stop stop-color="currentColor"></stop><stop offset="1" stop-opacity=".7" stop-color="currentColor"></stop></linearGradient></defs><path fill-rule="evenodd" clip-rule="evenodd" d="M9.356 3.466c1.189-1.955 4.1-1.955 5.288 0l7.924 13.032c1.21 1.99-.266 4.502-2.643 4.502H4.075c-2.377 0-3.853-2.513-2.643-4.502L9.356 3.466Zm2.394 12.533c-.552 0-1 .374-1 .835v1.67h1.5c.552 0 1-.374 1-.835v-1.67h-1.5Zm0-8.498a1 1 0 0 0-1 1v5.5h1.5a1 1 0 0 0 1-1v-5.5h-1.5Z" fill="url(&quot;#dsId_ZmtW9DVJOG0_linear_1524_1583&quot;)"></path></svg>