<svg xmlns:xlink="http://www.w3.org/1999/xlink" viewBox="0 0 24 24" xmlns="http://www.w3.org/2000/svg" focusable="false" width="24"  height="24" ><defs><linearGradient id="dsId_j7wkT9BSU-0_linear_1134_1208" x1="12.333" y1="10.5" x2="24.578" y2="19.185" gradientUnits="userSpaceOnUse"><stop stop-color="currentColor" stop-opacity=".4"></stop><stop offset="1" stop-color="currentColor" stop-opacity=".3"></stop></linearGradient><linearGradient id="dsId_j7wkT9BSU-1_linear_1134_1208" x1="12.5" y1="10.333" x2="5.5" y2="10.333" gradientUnits="userSpaceOnUse"><stop stop-opacity=".55" stop-color="currentColor"></stop><stop offset="1" stop-opacity=".35" stop-color="currentColor"></stop></linearGradient><linearGradient id="dsId_j7wkT9BSU-0_linear_1134_1208" x1="12.333" y1="10.5" x2="24.578" y2="19.185" gradientUnits="userSpaceOnUse"><stop stop-color="currentColor" stop-opacity=".4"></stop><stop offset="1" stop-color="currentColor" stop-opacity=".3"></stop></linearGradient><linearGradient id="dsId_j7wkT9BSU-1_linear_1134_1208" x1="12.5" y1="10.333" x2="5.5" y2="10.333" gradientUnits="userSpaceOnUse"><stop stop-opacity=".55" stop-color="currentColor"></stop><stop offset="1" stop-opacity=".35" stop-color="currentColor"></stop></linearGradient></defs><path fill-rule="evenodd" clip-rule="evenodd" d="M14.022 14.254 17 10l5.348 7.64c.696.994-.015 2.36-1.229 2.36h-2.071a2 2 0 0 1-1.644-.862l-3.382-4.884Z" fill="url(&quot;#dsId_j7wkT9BSU-0_linear_1134_1208&quot;)"></path><path fill-rule="evenodd" clip-rule="evenodd" d="m9 7 .018.026L9 7Zm3.462 5H5.539l-3.91 5.646C.942 18.641 1.654 20 2.864 20h16.185a2 2 0 0 1-1.644-.862L12.462 12Z" fill="#428BF9"></path><path d="m9 7 3.5 5h-7L9 7Z" fill="url(&quot;#dsId_j7wkT9BSU-1_linear_1134_1208&quot;)"></path><path d="M17 3.5 9 0v7l8-3.5Z" fill="#428BF9"></path></svg>