<svg xmlns:xlink="http://www.w3.org/1999/xlink" viewBox="0 0 24 24" xmlns="http://www.w3.org/2000/svg" focusable="false" width="24"  height="24" ><defs><linearGradient id="dsId_qOrMby4fa_0_linear_1524_1586" x1="3.8" y1="3.8" x2="19.2" y2="19.2" gradientUnits="userSpaceOnUse"><stop stop-color="currentColor"></stop><stop offset="1" stop-opacity=".7" stop-color="currentColor"></stop></linearGradient><linearGradient id="dsId_qOrMby4fa_0_linear_1524_1586" x1="3.8" y1="3.8" x2="19.2" y2="19.2" gradientUnits="userSpaceOnUse"><stop stop-color="currentColor"></stop><stop offset="1" stop-opacity=".7" stop-color="currentColor"></stop></linearGradient></defs><path fill-rule="evenodd" clip-rule="evenodd" d="M12 .5C5.649.5.5 5.649.5 12S5.649 23.5 12 23.5 23.5 18.351 23.5 12 18.351.5 12 .5ZM9 11V6h3.96c1.017 0 2.072.154 2.821.841C16.396 7.405 17 8.271 17 9.5c0 1.229-.604 2.095-1.218 2.659-.75.688-1.805.841-2.823.841H11.5v1.041H15A1.959 1.959 0 0 1 13.041 16H11.5v.063a2 2 0 0 1-2 2H9V16l-1.5-.041V15.5A1.46 1.46 0 0 1 9 14.041V13l-1.5-.041v-.5A1.46 1.46 0 0 1 9 11Zm4-3h-1.5v3H13s1.5.106 1.5-1.447C14.5 8 13 8 13 8Z" fill="url(&quot;#dsId_qOrMby4fa_0_linear_1524_1586&quot;)"></path></svg>