<svg xmlns:xlink="http://www.w3.org/1999/xlink" width="24" height="24" viewBox="0 0 24 24" fill="currentColor" xmlns="http://www.w3.org/2000/svg"><path d="M15.4647 13.9625H14.677L14.3977 13.6934C15.5944 12.2982 16.2126 10.3947 15.8736 8.37165C15.4049 5.60112 13.0914 3.38868 10.2993 3.04984C6.08129 2.53161 2.53134 6.07948 3.04987 10.2951C3.38891 13.0855 5.60265 15.3976 8.3748 15.866C10.3991 16.2049 12.3037 15.587 13.6997 14.3911L13.969 14.6701V15.4574L18.207 19.6929C18.6158 20.1015 19.2839 20.1015 19.6928 19.6929C20.1016 19.2843 20.1016 18.6166 19.6928 18.208L15.4647 13.9625ZM9.48166 13.9625C6.99869 13.9625 4.99437 11.9594 4.99437 9.47786C4.99437 6.99635 6.99869 4.9932 9.48166 4.9932C11.9646 4.9932 13.969 6.99635 13.969 9.47786C13.969 11.9594 11.9646 13.9625 9.48166 13.9625Z" fill="#9299A2"></path></svg>