<svg xmlns:xlink="http://www.w3.org/1999/xlink" viewBox="0 0 24 24" xmlns="http://www.w3.org/2000/svg" focusable="false" width="24"  height="24" ><defs><linearGradient id="dsId_NBwH-dC39O0_linear_1134_1262" x1="5" y1="8" x2="15" y2="16" gradientUnits="userSpaceOnUse"><stop stop-opacity=".35" stop-color="currentColor"></stop><stop offset="1" stop-opacity=".15" stop-color="currentColor"></stop></linearGradient><linearGradient id="dsId_NBwH-dC39O0_linear_1134_1262" x1="5" y1="8" x2="15" y2="16" gradientUnits="userSpaceOnUse"><stop stop-opacity=".35" stop-color="currentColor"></stop><stop offset="1" stop-opacity=".15" stop-color="currentColor"></stop></linearGradient></defs><path fill-rule="evenodd" clip-rule="evenodd" d="M6.828 4H23v11a5 5 0 0 1-5 5H1V9.828a2 2 0 0 1 .586-1.414l3.828-3.828A2 2 0 0 1 6.828 4ZM17 8a2 2 0 0 1 2 2v6h-8a2 2 0 0 1-2-2V8h8Z" fill="#FFFFFF"></path><path fill-rule="evenodd" clip-rule="evenodd" d="M17 8a2 2 0 0 1 2 2v6h-8a2 2 0 0 1-2-2v-1h7a2 2 0 0 0-2-2H9V8h8Z" fill="url(&quot;#dsId_NBwH-dC39O0_linear_1134_1262&quot;)"></path><path d="M16 13a2 2 0 0 0-2-2H9v2h7Z" fill="#FFFFFF"></path></svg>