<svg xmlns:xlink="http://www.w3.org/1999/xlink" viewBox="0 0 24 24" xmlns="http://www.w3.org/2000/svg" focusable="false" width="24"  height="24" ><defs><linearGradient id="dsId_wqZBr6Lvv-0_linear_1525_513" x1="2.87" y1="13.491" x2="22.455" y2="12.348" gradientUnits="userSpaceOnUse"><stop stop-color="currentColor"></stop><stop offset="1" stop-opacity=".7" stop-color="currentColor"></stop></linearGradient><linearGradient id="dsId_wqZBr6Lvv-0_linear_1525_513" x1="2.87" y1="13.491" x2="22.455" y2="12.348" gradientUnits="userSpaceOnUse"><stop stop-color="currentColor"></stop><stop offset="1" stop-opacity=".7" stop-color="currentColor"></stop></linearGradient></defs><path fill-rule="evenodd" clip-rule="evenodd" d="M13.27 1.675 12 0l-1.27 1.675a5.5 5.5 0 0 1-5.132 2.126l-2.083-.286.286 2.083a5.5 5.5 0 0 1-2.126 5.132L0 12l1.675 1.27a5.5 5.5 0 0 1 2.126 5.132l-.286 2.083 2.083-.286a5.5 5.5 0 0 1 5.132 2.125L12 24l1.27-1.675a5.5 5.5 0 0 1 5.132-2.126l2.083.286-.286-2.083a5.5 5.5 0 0 1 2.125-5.132L24 12l-1.675-1.27a5.5 5.5 0 0 1-2.126-5.132l.286-2.083-2.083.286a5.5 5.5 0 0 1-5.132-2.126ZM8.204 15.212c-.186.362.222.77.584.584 2.559-1.311 3.865-1.311 6.424 0 .362.186.77-.222.584-.584-1.311-2.559-1.311-3.865 0-6.424.186-.362-.222-.77-.584-.584-2.559 1.311-3.865 1.311-6.424 0-.362-.186-.77.222-.584.584 1.311 2.559 1.311 3.865 0 6.424Z" fill="url(&quot;#dsId_wqZBr6Lvv-0_linear_1525_513&quot;)"></path><path opacity=".1" d="M8.788 15.796c-.362.186-.77-.222-.584-.584 1.311-2.559 1.311-3.865 0-6.424-.186-.362.222-.77.584-.584 2.559 1.311 3.865 1.311 6.424 0 .362-.186.77.222.584.584-1.311 2.559-1.311 3.865 0 6.424.186.362-.222.77-.584.584-2.559-1.311-3.865-1.311-6.424 0Z" fill="#FFFFFF"></path></svg>