<svg xmlns:xlink="http://www.w3.org/1999/xlink" viewBox="0 0 24 24" xmlns="http://www.w3.org/2000/svg" focusable="false" width="28"  height="28" ><defs><linearGradient id="dsId_BwqwBs3Z6U0_linear_1525_566" x1="11.75" y1="4.5" x2="22.689" y2="22.583" gradientUnits="userSpaceOnUse"><stop stop-color="currentColor"></stop><stop offset="1" stop-opacity=".7" stop-color="currentColor"></stop></linearGradient><linearGradient id="dsId_BwqwBs3Z6U0_linear_1525_566" x1="11.75" y1="4.5" x2="22.689" y2="22.583" gradientUnits="userSpaceOnUse"><stop stop-color="currentColor"></stop><stop offset="1" stop-opacity=".7" stop-color="currentColor"></stop></linearGradient></defs><path fill-rule="evenodd" clip-rule="evenodd" d="M1.5 4.5h16A4.5 4.5 0 0 1 22 9v14l-2.244-2.409A5 5 0 0 0 16.098 19H6a4.5 4.5 0 0 1-4.5-4.5v-10ZM6 11a3 3 0 0 1 3-3h8a3 3 0 0 1-3 3H6Zm3 2a3 3 0 0 0-3 3h4a3 3 0 0 0 3-3H9Z" fill="url(&quot;#dsId_BwqwBs3Z6U0_linear_1525_566&quot;)"></path><path opacity=".3" d="M6 16a3 3 0 0 1 3-3h4a3 3 0 0 1-3 3H6Z" fill="#9299A2"></path></svg>