<svg xmlns:xlink="http://www.w3.org/1999/xlink" viewBox="0 0 24 24" xmlns="http://www.w3.org/2000/svg" focusable="false" width="24"  height="24" ><path fill-rule="evenodd" clip-rule="evenodd" d="M1 1h5v.5C6 2.3 5.3 3 4.5 3H3v1c0 .8-.7 1.5-1.5 1.5H1V1ZM1 23h5v-.5c0-.8-.7-1.5-1.5-1.5H3v-1c0-.8-.7-1.5-1.5-1.5H1V23ZM23 1h-5v.5c0 .8.7 1.5 1.5 1.5H21v1c0 .8.7 1.5 1.5 1.5h.5V1ZM23 23h-5v-.5c0-.8.7-1.5 1.5-1.5H21v-1c0-.8.7-1.5 1.5-1.5h.5V23ZM13.4 13.4V5H5v8.4h8.4Zm-2.1-2.1V7.1H7.1v4.2h4.2Z" fill="#428BF9"></path><path d="M9.97 8.43v1.54H8.43V8.43h1.54Z" fill="#428BF9"></path><path opacity=".85" fill-rule="evenodd" clip-rule="evenodd" d="M15.5 5H19V11.3h-3.5V9.2h1.75V7.1H15.5V5ZM5 19h2.1v-1.75h2.1V19h2.1v-3.5H5V19Z" fill="#428BF9" fill-opacity="0.9"></path><path fill-rule="evenodd" clip-rule="evenodd" d="M19 19v-5.6h-5.6V19H19Zm-1.96-1.96v-1.68h-1.68v1.68h1.68Z" fill="#428BF9"></path></svg>