<svg xmlns:xlink="http://www.w3.org/1999/xlink" viewBox="0 0 24 24" xmlns="http://www.w3.org/2000/svg" focusable="false" width="24"  height="24" ><defs><linearGradient id="dsId_V7fa2XJPKR0_linear_1525_518" x1="21" y1="20.975" x2="2.974" y2="10.206" gradientUnits="userSpaceOnUse"><stop stop-opacity=".8" stop-color="currentColor"></stop><stop offset="1" stop-opacity=".4" stop-color="currentColor"></stop></linearGradient><linearGradient id="dsId_V7fa2XJPKR0_linear_1525_518" x1="21" y1="20.975" x2="2.974" y2="10.206" gradientUnits="userSpaceOnUse"><stop stop-opacity=".8" stop-color="currentColor"></stop><stop offset="1" stop-opacity=".4" stop-color="currentColor"></stop></linearGradient></defs><path fill-rule="evenodd" clip-rule="evenodd" d="M7.5 4a2 2 0 0 1 2-2h5a2 2 0 0 1 2 2v1.5H16A2 2 0 0 1 14.063 4H9.937A2 2 0 0 1 8 5.5h-.5V4Z" fill="#FFFFFF"></path><path fill-rule="evenodd" clip-rule="evenodd" d="M22 11H2v9.5h16a4 4 0 0 0 4-4V11Zm-10.5 1.5a2 2 0 0 0-2 2v.5h3a2 2 0 0 0 2-2v-.5h-3Z" fill="url(&quot;#dsId_V7fa2XJPKR0_linear_1525_518&quot;)"></path><path d="M2 10.5a4 4 0 0 1 4-4h16V11H2v-.5Z" fill="#FFFFFF"></path></svg>