<svg xmlns:xlink="http://www.w3.org/1999/xlink" viewBox="0 0 24 24" xmlns="http://www.w3.org/2000/svg" focusable="false" width="28"  height="28" ><path opacity=".95" d="M2.5 7.658A3.162 3.162 0 0 1 5.667 4.5h5.146v3.158a3.162 3.162 0 0 1-3.167 3.158H2.5V7.658Z" fill="#9299A2"></path><path opacity=".6" d="M2.5 16.342a3.162 3.162 0 0 1 3.167-3.158h5.146v3.158A3.162 3.162 0 0 1 7.646 19.5H2.5v-3.158ZM13.188 7.658A3.162 3.162 0 0 1 16.354 4.5H21.5v3.158a3.162 3.162 0 0 1-3.167 3.158h-5.145V7.658ZM13.188 16.342a3.162 3.162 0 0 1 3.166-3.158H21.5v3.158a3.162 3.162 0 0 1-3.167 3.158h-5.145v-3.158Z" fill="#9299A2"></path></svg>