<svg xmlns:xlink="http://www.w3.org/1999/xlink" viewBox="0 0 24 24" xmlns="http://www.w3.org/2000/svg" focusable="false" width="24"  height="24" ><defs><linearGradient id="dsId_E4_ilp8m5w0_linear_3129_1111" x1="9.59" y1="5.5" x2="9.464" y2="16.288" gradientUnits="userSpaceOnUse"><stop stop-opacity=".6" stop-color="currentColor"></stop><stop offset="1" stop-opacity=".35" stop-color="currentColor"></stop></linearGradient><linearGradient id="dsId_E4_ilp8m5w0_linear_3129_1111" x1="9.59" y1="5.5" x2="9.464" y2="16.288" gradientUnits="userSpaceOnUse"><stop stop-opacity=".6" stop-color="currentColor"></stop><stop offset="1" stop-opacity=".35" stop-color="currentColor"></stop></linearGradient></defs><path fill-rule="evenodd" clip-rule="evenodd" d="M20.24 5.8a3.069 3.069 0 0 0 0-4.3L3.76 18.2a3.069 3.069 0 0 0 0 4.3l4.663-4.726c1.125.445 2.33.726 3.577.726 6 0 11-6.5 11-6.5s-1.85-2.404-4.648-4.288L20.24 5.8Zm-4.324 4.381.644-.653c.559.351 1.1.745 1.613 1.162.554.45 1.044.901 1.458 1.31-.414.409-.904.86-1.458 1.31C16.33 14.808 14.14 16 12 16a6.569 6.569 0 0 1-1.617-.212l.85-.861a4 4 0 0 0 4.683-4.745Z" fill="#FFFFFF"></path><path d="M5.648 16.288C2.849 14.404 1 12 1 12s5-6.5 11-6.5c1.247 0 2.451.28 3.576.726l-6.903 6.996A3.981 3.981 0 0 1 8 11c0-.781.224-1.51.61-2.125-.976.476-1.918 1.112-2.784 1.815-.553.45-1.044.901-1.457 1.31.413.409.904.86 1.457 1.31.514.417 1.055.81 1.614 1.162l-1.792 1.816Z" fill="url(&quot;#dsId_E4_ilp8m5w0_linear_3129_1111&quot;)"></path></svg>