<svg xmlns:xlink="http://www.w3.org/1999/xlink" viewBox="0 0 24 24" xmlns="http://www.w3.org/2000/svg" focusable="false" width="24"  height="24" ><defs><linearGradient id="dsId_SEW_g2uxLJ0_linear_3129_1106" x1="12" y1="5.5" x2="12" y2="18.5" gradientUnits="userSpaceOnUse"><stop stop-color="currentColor"></stop><stop offset="1" stop-opacity=".7" stop-color="currentColor"></stop></linearGradient><linearGradient id="dsId_SEW_g2uxLJ0_linear_3129_1106" x1="12" y1="5.5" x2="12" y2="18.5" gradientUnits="userSpaceOnUse"><stop stop-color="currentColor"></stop><stop offset="1" stop-opacity=".7" stop-color="currentColor"></stop></linearGradient></defs><path fill-rule="evenodd" clip-rule="evenodd" d="M12 5.5c6 0 11 6.5 11 6.5s-5 6.5-11 6.5S1 12 1 12s5-6.5 11-6.5ZM4.37 12c.412-.409.903-.86 1.456-1.31.866-.703 1.808-1.339 2.785-1.815a4 4 0 1 0 6.778 0c.977.476 1.919 1.112 2.785 1.815.553.45 1.044.901 1.457 1.31-.413.409-.904.86-1.457 1.31C16.329 14.808 14.139 16 12 16c-2.14 0-4.329-1.192-6.174-2.69A20.208 20.208 0 0 1 4.37 12Z" fill="url(&quot;#dsId_SEW_g2uxLJ0_linear_3129_1106&quot;)"></path></svg>