<svg xmlns:xlink="http://www.w3.org/1999/xlink" viewBox="0 0 24 24" xmlns="http://www.w3.org/2000/svg" focusable="false" width="24"  height="24" ><defs><linearGradient id="dsId_I__cN_6g6k0_linear_1525_512" x1="5" y1="5" x2="19" y2="19" gradientUnits="userSpaceOnUse"><stop stop-opacity=".95" stop-color="currentColor"></stop><stop offset="1" stop-opacity=".65" stop-color="currentColor"></stop></linearGradient><linearGradient id="dsId_I__cN_6g6k0_linear_1525_512" x1="5" y1="5" x2="19" y2="19" gradientUnits="userSpaceOnUse"><stop stop-opacity=".95" stop-color="currentColor"></stop><stop offset="1" stop-opacity=".65" stop-color="currentColor"></stop></linearGradient></defs><path fill-rule="evenodd" clip-rule="evenodd" d="M12 23c6.075 0 11-4.925 11-11S18.075 1 12 1 1 5.925 1 12s4.925 11 11 11Zm5.514-10.5a1 1 0 0 1-1 1h-3v4h-2a1 1 0 0 1-1-1v-3h-4v-2a1 1 0 0 1 1-1h3v-4h2a1 1 0 0 1 1 1v3h4v2Z" fill="url(&quot;#dsId_I__cN_6g6k0_linear_1525_512&quot;)"></path></svg>