<svg xmlns:xlink="http://www.w3.org/1999/xlink" viewBox="0 0 24 24" xmlns="http://www.w3.org/2000/svg" focusable="false" width="24"  height="24" ><defs><linearGradient id="dsId_FGxT0ZoRTV0_linear_1134_1187" x1="2" y1="14" x2="16.5" y2="14" gradientUnits="userSpaceOnUse"><stop stop-color="currentColor"></stop><stop offset="1" stop-opacity=".7" stop-color="currentColor"></stop></linearGradient><linearGradient id="dsId_FGxT0ZoRTV0_linear_1134_1187" x1="2" y1="14" x2="16.5" y2="14" gradientUnits="userSpaceOnUse"><stop stop-color="currentColor"></stop><stop offset="1" stop-opacity=".7" stop-color="currentColor"></stop></linearGradient></defs><path d="m24 12-7.5-9-5 6H17v9a3.007 3.007 0 0 1-3 3h2.5a4 4 0 0 0 4-4v-5H24Z" fill="#FFFFFF"></path><path opacity=".8" fill-rule="evenodd" clip-rule="evenodd" d="M2 7.5V18a3 3 0 0 0 3 3h9a3 3 0 0 0 3-3V9H3.5A1.5 1.5 0 0 1 2 7.5Zm10 7.25c0-.69.56-1.25 1.25-1.25h.5a1.25 1.25 0 1 1 0 2.5h-.5c-.69 0-1.25-.56-1.25-1.25Z" fill="url(&quot;#dsId_FGxT0ZoRTV0_linear_1134_1187&quot;)"></path><path opacity=".35" d="M2 7.5A1.5 1.5 0 0 1 3.5 6H14l-2.5 3h-8A1.5 1.5 0 0 1 2 7.5Z" fill="#FFFFFF"></path></svg>