<svg xmlns:xlink="http://www.w3.org/1999/xlink" viewBox="0 0 24 24" xmlns="http://www.w3.org/2000/svg" focusable="false" width="28"  height="28" ><path d="m4.73 6.904 2.172 3.882v2.368l-2.17 3.875L4.73 6.904Z" fill="#5B57A2"></path><path d="m13.069 9.373 2.035-1.247 4.165-.004-6.2 3.799V9.373Z" fill="#D90751"></path><path d="M13.07 6.881v5.14l-2.177-1.338V3l2.177 3.881Z" fill="#FAB718"></path><path d="m19.27 8.122-4.165.004-2.047-1.245L10.893 3l8.377 5.122Z" fill="#ED6F26"></path><path d="M13.07 17.05v-2.493l-2.177-1.327v7.706l2.177-3.886Z" fill="#63B22F"></path><path d="M15.1 15.815 6.9 10.786 4.73 6.904l14.53 8.905-4.16.006Z" fill="#1487C9"></path><path d="m10.895 20.936 2.175-3.886 2.03-1.236 4.162-.005-8.367 5.127Z" fill="#017F36"></path><path d="m4.732 17.029 6.177-3.784-2.076-1.275L6.9 13.154l-2.17 3.875Z" fill="#984995"></path></svg>