<svg xmlns:xlink="http://www.w3.org/1999/xlink" viewBox="0 0 24 24" xmlns="http://www.w3.org/2000/svg" focusable="false" width="24"  height="24" ><path fill-rule="evenodd" clip-rule="evenodd" d="M1.675 16.474 9.417 3.37c1.161-1.965 4.005-1.965 5.166 0l7.743 13.103c1.181 2-.26 4.526-2.583 4.526H4.257c-2.323 0-3.764-2.526-2.582-4.526Z" fill="url(&quot;#dsId_Q1JmtJBn9N0_linear_39181_1219&quot;)"></path><path fill-rule="evenodd" clip-rule="evenodd" d="M10.75 18.5h1.5a1 1 0 0 0 1-1v-2h-1.5a1 1 0 0 0-1 1v2Zm0-4.5h1.5a1 1 0 0 0 1-1V7.5h-1.5a1 1 0 0 0-1 1V14Z" fill="#FFFFFF"></path><defs><linearGradient id="dsId_Q1JmtJBn9N0_linear_39181_1219" x1="5.161" y1="5.37" x2="17.233" y2="18.954" gradientUnits="userSpaceOnUse"><stop stop-color="#FAB619"></stop><stop offset="1" stop-color="#FAB619" stop-opacity=".7"></stop></linearGradient><linearGradient id="dsId_Q1JmtJBn9N0_linear_39181_1219" x1="5.161" y1="5.37" x2="17.233" y2="18.954" gradientUnits="userSpaceOnUse"><stop stop-color="#FAB619"></stop><stop offset="1" stop-color="#FAB619" stop-opacity=".7"></stop></linearGradient></defs></svg>